<svg width="92" height="94" viewBox="0 0 92 94" fill="none" xmlns="http://www.w3.org/2000/svg">
<path d="M89.758 42.292L82.636 35.169C81.643 34.174 80.295 33.616 78.891 33.616C77.485 33.616 76.137 34.175 75.145 35.169L73.175 37.14V0H0V93.584H73.175V66.632L89.758 49.782C91.828 47.715 91.828 44.36 89.758 42.292ZM65.228 85.639H7.945V7.946H65.229V45.259L58.272 52.219V46.792H15.564V52.255H58.234L45.638 64.855C45.016 65.478 44.558 66.248 44.307 67.089L41.276 77.279C40.722 79.143 41.234 81.16 42.609 82.535C43.615 83.544 44.968 84.087 46.354 84.087C46.858 84.087 47.366 84.015 47.864 83.866L58.055 80.836C58.899 80.585 59.666 80.128 60.29 79.505L65.227 74.571V85.639H65.228ZM56.318 75.92L46.127 78.951L49.158 68.76L72.023 45.886L79.195 53.057L56.318 75.92ZM81.533 50.448L74.412 43.325L78.662 39.073L85.785 46.195L81.533 50.448Z" fill="black"/>
<path d="M58.272 17.575H15.564V23.037H58.272V17.575Z" fill="black"/>
<path d="M58.272 31.977H15.564V37.441H58.272V31.977Z" fill="black"/>
</svg>
