<svg width="34" height="32" viewBox="0 0 34 32" fill="none" xmlns="http://www.w3.org/2000/svg">
<path d="M33.0231 14.4613L30.4356 12.0256C30.0748 11.6854 29.5851 11.4946 29.075 11.4946C28.5642 11.4946 28.0744 11.6858 27.714 12.0256L26.9983 12.6996V0H0.413086V32H26.9983V22.7841L33.0231 17.0224C33.7751 16.3156 33.7751 15.1684 33.0231 14.4613ZM24.1111 29.2833H3.29958V2.71705H24.1114V15.4758L21.5839 17.8557V16H6.06764V17.868H21.5701L16.9938 22.1764C16.7678 22.3895 16.6014 22.6528 16.5103 22.9403L15.4091 26.4247C15.2078 27.0621 15.3938 27.7518 15.8934 28.2219C16.2588 28.5669 16.7504 28.7526 17.254 28.7526C17.4371 28.7526 17.6216 28.728 17.8026 28.677L21.505 27.641C21.8117 27.5551 22.0903 27.3989 22.317 27.1858L24.1107 25.4987V29.2833H24.1111ZM20.874 25.96L17.1715 26.9964L18.2727 23.5117L26.5798 15.6902L29.1854 18.1422L20.874 25.96ZM30.0348 17.2501L27.4477 14.8145L28.9918 13.3606L31.5796 15.7959L30.0348 17.2501Z" fill="black"/>
<path d="M21.5839 6.00958H6.06763V7.87725H21.5839V6.00958Z" fill="black"/>
<path d="M21.5839 10.9342H6.06763V12.8026H21.5839V10.9342Z" fill="black"/>
</svg>
