<?xml version="1.0" encoding="utf-8"?>
<!-- Svg Vector Icons : http://www.onlinewebfonts.com/icon -->
<!DOCTYPE svg PUBLIC "-//W3C//DTD SVG 1.1//EN" "http://www.w3.org/Graphics/SVG/1.1/DTD/svg11.dtd">
<svg version="1.1" xmlns="http://www.w3.org/2000/svg" xmlns:xlink="http://www.w3.org/1999/xlink" x="0px" y="0px" viewBox="0 0 1000 1000" enable-background="new 0 0 1000 1000" xml:space="preserve">
<metadata> Svg Vector Icons : http://www.onlinewebfonts.com/icon </metadata>
<g><path d="M922.4,212.8h-84.5v709.7c0,37.3-30.2,67.6-67.6,67.6H229.7c-37.3,0-67.6-30.2-67.6-67.6V212.8H77.6c-9.3,0-16.9-7.6-16.9-16.9v-33.8c0-9.3,7.6-16.9,16.9-16.9h185.9C263.4,70.5,324,10,398.6,10h202.8c74.6,0,135.2,60.5,135.2,135.2h185.9c9.3,0,16.9,7.6,16.9,16.9v33.8C939.3,205.2,931.7,212.8,922.4,212.8z M601.4,77.6H398.6c-37.3,0-67.6,30.2-67.6,67.6H669C669,107.8,638.7,77.6,601.4,77.6z M770.3,550.7V212.8h-33.8H669H331h-67.6h-33.8v337.9v337.9c0,18.7,15.1,33.8,33.8,33.8h473.1c18.7,0,33.8-15.1,33.8-33.8V550.7z M652.1,753.4h-33.8c-9.3,0-16.9-7.6-16.9-16.9V398.6c0-9.3,7.6-16.9,16.9-16.9h33.8c9.3,0,16.9,7.6,16.9,16.9v337.9C669,745.9,661.4,753.4,652.1,753.4z M516.9,753.4h-33.8c-9.3,0-16.9-7.6-16.9-16.9V398.6c0-9.3,7.6-16.9,16.9-16.9h33.8c9.3,0,16.9,7.6,16.9,16.9v337.9C533.8,745.9,526.2,753.4,516.9,753.4z M381.7,753.4h-33.8c-9.3,0-16.9-7.6-16.9-16.9V398.6c0-9.3,7.6-16.9,16.9-16.9h33.8c9.3,0,16.9,7.6,16.9,16.9v337.9C398.6,745.9,391.1,753.4,381.7,753.4z"/></g>
</svg>