<svg width="109" height="113" viewBox="0 0 109 113" fill="none" xmlns="http://www.w3.org/2000/svg">
<path d="M99.4199 13.4629H9.58008C4.29762 13.4629 0 17.9182 0 23.3945V89.6055C0 95.0818 4.29762 99.5371 9.58008 99.5371H99.4199C104.702 99.5371 109 95.0818 109 89.6055V23.3945C109 17.9182 104.702 13.4629 99.4199 13.4629ZM85.5416 20.084L54.5 44.0932L23.4584 20.084H85.5416ZM9.58008 20.084H12.7779L52.5904 50.8771C53.1569 51.3152 53.8283 51.5342 54.5 51.5342C55.1717 51.5342 55.8431 51.3152 56.4096 50.8771L96.2221 20.084H99.4199C101.179 20.084 102.611 21.5669 102.613 23.3906L54.5 60.6444L6.38693 23.3906C6.38906 21.5669 7.82054 20.084 9.58008 20.084V20.084ZM52.5891 67.4288C53.1558 67.8675 53.8279 68.0869 54.5 68.0869C55.1721 68.0869 55.8442 67.8675 56.4109 67.4288L89.8398 41.5447V92.916H19.1602V41.5447L52.5891 67.4288ZM6.38672 89.6055V31.6543L12.7734 36.5996V92.916H9.58008C7.81926 92.916 6.38672 91.4309 6.38672 89.6055ZM99.4199 92.916H96.2266V36.5996L102.613 31.6543V89.6055C102.613 91.4309 101.181 92.916 99.4199 92.916Z" fill="black"/>
</svg>
