<svg width="94" height="112" viewBox="0 0 94 112" fill="none" xmlns="http://www.w3.org/2000/svg">
<path d="M8.28419 25.4389C12.8594 25.4389 16.5684 21.0197 16.5684 15.5683C16.5684 10.1169 12.8594 5.69763 8.28419 5.69763C3.70896 5.69763 0 10.1169 0 15.5683C0 21.0197 3.70896 25.4389 8.28419 25.4389Z" fill="black"/>
<path d="M94 7.84363H26.2891V23.2917H94V7.84363Z" fill="black"/>
<path d="M8.28419 66.2509C12.8594 66.2509 16.5684 61.8317 16.5684 56.3803C16.5684 50.9289 12.8594 46.5096 8.28419 46.5096C3.70896 46.5096 0 50.9289 0 56.3803C0 61.8317 3.70896 66.2509 8.28419 66.2509Z" fill="black"/>
<path d="M94 48.6556H26.2891V64.1037H94V48.6556Z" fill="black"/>
<path d="M8.28416 106.303C12.8588 106.303 16.5674 101.885 16.5674 96.434C16.5674 90.9833 12.8588 86.5646 8.28416 86.5646C3.70949 86.5646 0.000976562 90.9833 0.000976562 96.434C0.000976562 101.885 3.70949 106.303 8.28416 106.303Z" fill="black"/>
<path d="M94 88.7095H26.2891V104.159H94V88.7095Z" fill="black"/>
</svg>
