<svg width="437" height="410" viewBox="0 0 437 410" fill="none" xmlns="http://www.w3.org/2000/svg">
<g filter="url(#filter0_d)">
<path d="M218.5 0L407.727 307.5H29.2735L218.5 0Z" fill="white"/>
<path d="M38.2212 302.5L218.5 9.54036L398.779 302.5H38.2212Z" stroke="#061B22" stroke-opacity="0.88" stroke-width="10"/>
</g>
<path d="M77.8038 276.018L219.592 50.6924L361.381 276.018H77.8038Z" fill="#FBFBFB" stroke="#352C5C" stroke-width="20"/>
<path d="M179.512 167.419H178.542C177.766 172.815 176.408 182.954 174.468 197.835C172.529 212.634 171.559 220.688 171.559 221.996C171.559 224.531 173.563 225.798 177.572 225.798L185.525 225.676L185.913 226.166L184.167 231.685C182.744 231.603 180.158 231.481 176.408 231.317C172.787 231.236 169.102 231.195 165.352 231.195C162.119 231.195 158.757 231.317 155.265 231.563C151.903 231.89 149.705 232.094 148.67 232.176L149.64 226.534C153.778 226.207 156.752 225.389 158.563 224.081C160.373 222.691 161.537 220.361 162.054 217.09C163.347 209.405 165.028 199.061 167.097 186.061C169.296 172.979 170.395 165.661 170.395 164.107C170.395 161.981 169.037 160.387 166.322 159.324C163.735 158.261 159.533 157.607 153.713 157.362L153.131 156.748L154.683 152.456C156.364 152.538 159.662 152.66 164.576 152.824C169.49 152.987 173.24 153.069 175.826 153.069C178.154 153.069 180.675 153.028 183.391 152.946C186.236 152.783 188.111 152.66 189.016 152.578C194.189 163.126 199.167 172.938 203.952 182.014C208.866 191.008 212.875 198.162 215.978 203.477C219.082 208.791 221.021 212.103 221.797 213.411H222.767C224.578 210.386 228.716 203.19 235.181 191.825C241.647 180.46 248.695 167.459 256.324 152.824C256.324 152.742 258.07 152.783 261.562 152.946L269.126 153.069C271.583 153.069 275.269 152.987 280.183 152.824C285.097 152.578 288.394 152.415 290.075 152.333L290.463 152.824L289.493 157.362C283.933 157.77 279.989 158.506 277.661 159.569C275.334 160.55 274.17 162.063 274.17 164.107C274.17 165.906 274.752 172.611 275.915 184.221C277.079 195.75 278.178 205.725 279.213 214.147C279.86 217.499 280.506 219.993 281.153 221.628C281.799 223.182 282.704 224.286 283.868 224.94C285.032 225.512 286.649 225.798 288.718 225.798C289.881 225.798 290.981 225.757 292.015 225.676C293.05 225.594 293.761 225.553 294.149 225.553L294.537 226.044L292.791 231.563C291.498 231.481 289.041 231.399 285.42 231.317C281.929 231.236 278.243 231.195 274.364 231.195C270.872 231.195 266.928 231.317 262.531 231.563C258.264 231.89 255.484 232.094 254.191 232.176L254.967 226.534C258.975 226.207 261.885 225.553 263.695 224.572C265.506 223.591 266.411 222.201 266.411 220.402C266.411 218.685 265.441 210.713 263.501 196.486C261.691 182.259 260.462 172.57 259.816 167.419H258.846L221.409 232.666L216.754 233.525L179.512 167.419Z" fill="black"/>
<defs>
<filter id="filter0_d" x="25.2734" y="0" width="386.453" height="315.5" filterUnits="userSpaceOnUse" color-interpolation-filters="sRGB">
<feFlood flood-opacity="0" result="BackgroundImageFix"/>
<feColorMatrix in="SourceAlpha" type="matrix" values="0 0 0 0 0 0 0 0 0 0 0 0 0 0 0 0 0 0 127 0"/>
<feOffset dy="4"/>
<feGaussianBlur stdDeviation="2"/>
<feColorMatrix type="matrix" values="0 0 0 0 0 0 0 0 0 0 0 0 0 0 0 0 0 0 0.25 0"/>
<feBlend mode="normal" in2="BackgroundImageFix" result="effect1_dropShadow"/>
<feBlend mode="normal" in="SourceGraphic" in2="effect1_dropShadow" result="shape"/>
</filter>
</defs>
</svg>
