<svg width="181" height="166" viewBox="0 0 181 166" fill="none" xmlns="http://www.w3.org/2000/svg">
<g filter="url(#filter0_d)">
<path d="M90.5 0L168.875 124.5H12.1247L90.5 0Z" fill="white"/>
<path d="M15.747 122.5L90.5 3.75413L165.253 122.5H15.747Z" stroke="#061B22" stroke-opacity="0.88" stroke-width="4"/>
</g>
<path d="M32.974 111.302L90.9525 21.2358L148.931 111.302H32.974Z" fill="#FBFBFB" stroke="#542DF1" stroke-width="9"/>
<path d="M76.3233 68.1807H76.1367C75.9874 70.3746 75.7261 74.4964 75.3529 80.5462C74.9796 86.5627 74.793 89.8368 74.793 90.3687C74.793 91.3991 75.1787 91.9144 75.95 91.9144L77.4803 91.8645L77.5549 92.0639L77.219 94.3077C76.9453 94.2744 76.4477 94.2246 75.7261 94.1581C75.0294 94.1248 74.3203 94.1082 73.5987 94.1082C72.9766 94.1082 72.3297 94.1581 71.6579 94.2578C71.011 94.3908 70.588 94.4739 70.3889 94.5071L70.5755 92.2135C71.3718 92.0806 71.944 91.7482 72.2924 91.2163C72.6407 90.6512 72.8647 89.7039 72.9642 88.3743C73.213 85.2497 73.5365 81.0448 73.9346 75.7595C74.3576 70.4411 74.5691 67.4661 74.5691 66.8345C74.5691 65.9703 74.3078 65.3221 73.7853 64.8899C73.2877 64.4578 72.479 64.1919 71.3593 64.0922L71.2473 63.8429L71.5459 62.0978C71.8694 62.131 72.5039 62.1809 73.4494 62.2473C74.3949 62.3138 75.1165 62.3471 75.6141 62.3471C76.062 62.3471 76.5472 62.3304 77.0697 62.2972C77.6171 62.2307 77.9779 62.1809 78.1521 62.1476C79.1474 66.4356 80.1053 70.4245 81.026 74.1141C81.9715 77.7706 82.7428 80.6791 83.34 82.8397C83.9372 85.0004 84.3104 86.3466 84.4597 86.8784H84.6463C84.9946 85.6485 85.7909 82.7234 87.035 78.103C88.2791 73.4826 89.6351 68.1974 91.1032 62.2473C91.1032 62.2141 91.4391 62.2307 92.1109 62.2972L93.5665 62.3471C94.0392 62.3471 94.7484 62.3138 95.6939 62.2473C96.6394 62.1476 97.2739 62.0811 97.5974 62.0479L97.672 62.2473L97.4854 64.0922C96.4155 64.2584 95.6566 64.5575 95.2087 64.9897C94.7608 65.3885 94.5369 66.0035 94.5369 66.8345C94.5369 67.5658 94.6489 70.2915 94.8728 75.0116C95.0967 79.6985 95.3082 83.7538 95.5073 87.1776C95.6317 88.5405 95.7561 89.5543 95.8805 90.2191C96.0049 90.8507 96.1791 91.2994 96.403 91.5653C96.627 91.798 96.938 91.9144 97.3361 91.9144C97.56 91.9144 97.7715 91.8977 97.9706 91.8645C98.1697 91.8313 98.3065 91.8146 98.3812 91.8146L98.4558 92.0141L98.1199 94.2578C97.8711 94.2246 97.3983 94.1913 96.7016 94.1581C96.0298 94.1248 95.3207 94.1082 94.5742 94.1082C93.9024 94.1082 93.1435 94.1581 92.2975 94.2578C91.4764 94.3908 90.9414 94.4739 90.6926 94.5071L90.8419 92.2135C91.6133 92.0806 92.1731 91.8146 92.5214 91.4158C92.8698 91.0169 93.044 90.4518 93.044 89.7205C93.044 89.0224 92.8574 85.7815 92.4841 79.9977C92.1358 74.2139 91.8994 70.2749 91.775 68.1807H91.5884L84.385 94.7065L83.4893 95.0556L76.3233 68.1807Z" fill="black"/>
<path d="M101.131 99.6427L101.243 99.2439C102.263 98.4128 103.047 97.532 103.594 96.6012C104.167 95.7038 104.565 94.6234 104.789 93.3603C105.038 92.0639 105.162 90.4019 105.162 88.3743L105.199 67.1835C105.199 66.1198 105.112 65.4218 104.938 65.0894C104.764 64.7237 104.391 64.5409 103.818 64.5409C103.52 64.5409 103.184 64.5742 102.811 64.6406C102.462 64.6739 102.213 64.7071 102.064 64.7404L101.99 64.5409L102.251 62.3471H106.282C106.953 62.3471 107.762 62.2972 108.708 62.1975C109.678 62.0645 110.313 61.9648 110.611 61.8983L110.462 64.142C109.84 64.275 109.392 64.4246 109.118 64.5908C108.845 64.757 108.645 65.0229 108.521 65.3885C108.422 65.7209 108.359 66.2528 108.334 66.9841C108.235 70.0754 108.135 73.6654 108.036 77.754C107.961 81.8425 107.899 85.366 107.849 88.3244C107.824 91.7149 107.327 94.424 106.356 96.4517C105.411 98.5126 103.881 100.125 101.766 101.288L101.131 99.6427Z" fill="black"/>
<defs>
<filter id="filter0_d" x="8.12469" y="0" width="164.751" height="132.5" filterUnits="userSpaceOnUse" color-interpolation-filters="sRGB">
<feFlood flood-opacity="0" result="BackgroundImageFix"/>
<feColorMatrix in="SourceAlpha" type="matrix" values="0 0 0 0 0 0 0 0 0 0 0 0 0 0 0 0 0 0 127 0"/>
<feOffset dy="4"/>
<feGaussianBlur stdDeviation="2"/>
<feColorMatrix type="matrix" values="0 0 0 0 0 0 0 0 0 0 0 0 0 0 0 0 0 0 0.25 0"/>
<feBlend mode="normal" in2="BackgroundImageFix" result="effect1_dropShadow"/>
<feBlend mode="normal" in="SourceGraphic" in2="effect1_dropShadow" result="shape"/>
</filter>
</defs>
</svg>
