<svg width="113" height="93" viewBox="0 0 113 93" fill="none" xmlns="http://www.w3.org/2000/svg">
<path d="M95.8863 68.9135C94.5486 67.0766 92.5488 65.7917 90.2974 65.0658L75.0467 59.3822L68.8005 54.7232L56.4108 64.0312L44.3009 54.6407L37.2338 59.5461L22.5206 65.1181C20.3486 65.853 18.4147 67.1249 17.1125 68.9135L0 92.4661H113L95.8863 68.9135Z" fill="black"/>
<path d="M34.7149 39.4621C35.0716 38.7935 37.9448 24.7943 66.1203 16.3378C79.6595 12.274 78.0775 39.4621 78.0775 39.4621C83.5284 37.3256 84.8881 24.2312 84.8832 22.5874C84.8551 8.47051 73.7664 0.2101 55.3261 0.542889C37.5637 0.881711 27.2336 8.97824 27.9422 23.1424C28.0216 24.7269 29.1663 36.6973 34.7149 39.4621Z" fill="black"/>
</svg>
