<svg width="94" height="94" viewBox="0 0 94 94" fill="none" xmlns="http://www.w3.org/2000/svg">
<g clip-path="url(#clip0)">
<path d="M93.5 40.899C93.5 38.446 91.505 36.452 89.052 36.452H81.98C81.24 33.907 80.224 31.451 78.945 29.121L83.943 24.121C84.769 23.294 85.246 22.148 85.246 20.975C85.246 19.785 84.784 18.669 83.943 17.829L75.67 9.555C74.057 7.94 70.997 7.937 69.38 9.555L64.38 14.555C62.053 13.275 59.594 12.259 57.048 11.518V4.448C57.048 1.995 55.053 0 52.602 0H40.899C38.446 0 36.452 1.995 36.452 4.448V11.519C33.906 12.26 31.447 13.276 29.119 14.556L24.119 9.556C22.439 7.877 19.51 7.877 17.831 9.556L9.555 17.83C7.821 19.564 7.821 22.385 9.555 24.119L14.554 29.119C13.275 31.449 12.259 33.907 11.518 36.452H4.448C1.995 36.452 0 38.447 0 40.899V52.6C0 55.053 1.995 57.047 4.448 57.047H11.519C12.259 59.592 13.276 62.05 14.555 64.379L9.557 69.378C8.73 70.205 8.254 71.352 8.254 72.524C8.254 73.713 8.716 74.831 9.556 75.67L17.83 83.943C19.444 85.558 22.504 85.562 24.12 83.943L29.12 78.943C31.448 80.222 33.906 81.24 36.453 81.98V89.051C36.453 91.504 38.448 93.499 40.9 93.499H52.602C55.055 93.499 57.048 91.504 57.048 89.051V81.98C59.594 81.24 62.053 80.224 64.38 78.943L69.38 83.943C71.061 85.623 73.988 85.623 75.668 83.943L83.943 75.67C85.677 73.936 85.677 71.115 83.943 69.381L78.945 64.38C80.224 62.051 81.24 59.593 81.98 57.048H89.051C91.504 57.048 93.499 55.053 93.499 52.602V40.899H93.5ZM62.947 46.75C62.947 55.682 55.681 62.947 46.75 62.947C37.819 62.947 30.553 55.681 30.553 46.75C30.553 37.819 37.819 30.553 46.75 30.553C55.682 30.553 62.947 37.819 62.947 46.75Z" fill="black"/>
</g>
<defs>
<clipPath id="clip0">
<rect width="93.5" height="93.5" fill="white"/>
</clipPath>
</defs>
</svg>
