<svg width="106" height="103" viewBox="0 0 106 103" fill="none" xmlns="http://www.w3.org/2000/svg">
<path d="M52.5551 103C81.5804 103 105.11 79.9427 105.11 51.5C105.11 23.0573 81.5804 0 52.5551 0C23.5297 0 0 23.0573 0 51.5C0 79.9427 23.5297 103 52.5551 103Z" fill="#55ACEE"/>
<path d="M84.7455 37.0116C82.4933 37.9903 80.0706 38.6522 77.5299 38.9478C80.124 37.4247 82.1148 35.0149 83.0545 32.1387C80.6271 33.5497 77.9374 34.5733 75.0773 35.1251C72.7857 32.7336 69.5208 31.239 65.9056 31.239C58.9692 31.239 53.3434 36.7518 53.3434 43.549C53.3434 44.5138 53.4549 45.453 53.6704 46.3545C43.2302 45.8413 33.9732 40.9408 27.777 33.491C26.6958 35.3087 26.0757 37.4247 26.0757 39.6804C26.0757 43.9501 28.295 47.7196 31.6639 49.9266C29.6057 49.8632 27.6673 49.3096 25.9745 48.3852C25.9735 48.4375 25.9735 48.4898 25.9735 48.5412C25.9735 54.5057 30.3055 59.4806 36.0512 60.6107C34.9982 60.8934 33.8861 61.0431 32.7422 61.0431C31.9309 61.0431 31.1449 60.9669 30.3786 60.8236C31.9768 65.7131 36.6151 69.2723 42.1135 69.3724C37.8134 72.6746 32.3975 74.6419 26.5103 74.6419C25.4986 74.6419 24.4961 74.5841 23.5153 74.4693C29.0717 77.9634 35.6764 80.0005 42.7702 80.0005C65.8765 80.0005 78.5127 61.2432 78.5127 44.9747C78.5127 44.4413 78.5005 43.9097 78.4761 43.3828C80.9325 41.6477 83.062 39.4802 84.7455 37.0116Z" fill="#F1F2F2"/>
</svg>
