<svg width="106" height="84" viewBox="0 0 106 84" fill="none" xmlns="http://www.w3.org/2000/svg">
<g clip-path="url(#clip0)">
<path d="M50.4299 0.0488223C22.4354 1.10511 0.343847 19.5804 0.428772 41.7898C0.45463 48.5542 2.51538 54.939 6.15067 60.5804L0.569215 82.0503C0.267288 83.2117 1.58907 84.2286 3.04496 83.9554L29.5929 78.9711C36.4135 81.6634 44.0745 83.2185 52.1824 83.3166C80.7954 83.6629 104.654 65.6588 105.546 42.9927C106.502 18.6962 81.197 -1.11233 50.4299 0.0488223ZM82.1073 64.727C74.3325 70.8882 63.9953 74.2812 53.0002 74.2812C46.5622 74.2812 40.3984 73.1366 34.6795 70.8791L30.9824 69.4197L14.7058 72.4756L18.1319 59.2957L16.3105 56.4692C13.3416 51.8617 11.8363 46.8794 11.8363 41.6608C11.8363 32.9475 16.118 24.7559 23.8928 18.5946C31.5982 12.4885 42.104 9.04015 53.001 9.04015C63.9961 9.04035 74.3328 12.4334 82.1076 18.5944C89.8824 24.7555 94.1641 32.9471 94.1644 41.6602C94.1641 50.2957 89.8127 58.6211 82.1073 64.727Z" fill="#7AD06D"/>
<path d="M78.514 50.6954L68.3309 48.3783C66.9921 48.0738 65.5505 48.3747 64.575 49.1624L62.0848 51.1729C61.0347 52.0207 59.4414 52.2931 58.0517 51.8475C53.2346 50.3027 43.1014 43.163 40.5136 39.5917C39.767 38.5615 39.8905 37.2736 40.8072 36.3336L42.9813 34.1047C43.833 33.2315 44.0128 32.0587 43.4495 31.0492L39.1652 23.3705C38.139 21.5313 35.1732 20.9959 33.2357 22.2945C30.3936 24.1994 27.0215 27.094 26.6116 30.3008C25.8888 35.9548 28.9486 43.082 40.5194 51.64C53.8869 61.5269 64.5914 62.8331 71.5611 61.4952C75.5143 60.7364 78.6735 57.6945 80.6673 55.2038C82.0266 53.5057 80.9533 51.2505 78.514 50.6954Z" fill="#7AD06D"/>
</g>
<defs>
<clipPath id="clip0">
<rect width="106" height="84" fill="white"/>
</clipPath>
</defs>
</svg>
