<svg width="106" height="84" viewBox="0 0 106 84" fill="none" xmlns="http://www.w3.org/2000/svg">
<path d="M50.0014 0.0485779C22.0069 1.10487 -0.084681 19.5802 0.00024403 41.7896C0.026102 48.554 2.08685 54.9388 5.72214 60.5802L0.140687 82.0501C-0.16124 83.2115 1.16054 84.2284 2.61643 83.9552L29.1644 78.9709C35.985 81.6632 43.646 83.2183 51.7539 83.3164C80.3669 83.6627 104.225 65.6586 105.117 42.9925C106.073 18.696 80.7685 -1.11257 50.0014 0.0485779ZM81.6788 64.7268C73.904 70.888 63.5668 74.281 52.5717 74.281C46.1337 74.281 39.9699 73.1364 34.251 70.8789L30.5539 69.4195L14.2773 72.4754L17.7034 59.2955L15.882 56.469C12.9131 51.8615 11.4078 46.8792 11.4078 41.6606C11.4078 32.9473 15.6895 24.7557 23.4643 18.5944C31.1697 12.4883 41.6755 9.03991 52.5725 9.03991C63.5676 9.04011 73.9043 12.4332 81.6791 18.5942C89.4539 24.7553 93.7356 32.9469 93.7359 41.66C93.7356 50.2955 89.3842 58.6209 81.6788 64.7268Z" fill="#7AD06D"/>
<path d="M78.0854 50.6952L67.9023 48.3781C66.5635 48.0736 65.1219 48.3745 64.1464 49.1622L61.6562 51.1727C60.6061 52.0205 59.0128 52.2929 57.6231 51.8473C52.806 50.3025 42.6728 43.1628 40.085 39.5915C39.3384 38.5613 39.4619 37.2734 40.3786 36.3334L42.5527 34.1045C43.4044 33.2313 43.5842 32.0585 43.0209 31.049L38.7366 23.3703C37.7104 21.5311 34.7446 20.9957 32.8071 22.2943C29.965 24.1992 26.5929 27.0938 26.183 30.3006C25.4602 35.9546 28.52 43.0818 40.0908 51.6398C53.4583 61.5267 64.1628 62.8329 71.1325 61.495C75.0857 60.7362 78.2449 57.6943 80.2387 55.2036C81.598 53.5055 80.5247 51.2503 78.0854 50.6952Z" fill="#7AD06D"/>
</svg>
